<svg xmlns="http://www.w3.org/2000/svg" version="1.1" xmlns:xlink="http://www.w3.org/1999/xlink" xmlns:svgjs="http://svgjs.dev/svgjs" width="100%" height="100%" viewBox="0 0 1000 600"><rect width="1000" height="600" x="0" y="0" fill="#FFFF"/><g><rect width="333.3333333333333" height="333.3333333333333" rx="13.333333333333334" ry="13.333333333333334" y="313.5844245740668" fill="#698474" transform="matrix(0.4290192375733701,0,0,0.4290192375733701,0,93.96302610074028)" x="291.36209106445307"/><path d="M525.6514613786319 405.2510988163451L525.6514613786319 405.2510988163451L525.6514613786319 409.4583446160729Q521.6779514566667 410.3056371729626 517.1493188250154 414.308364079648Q512.6206861933638 418.3110909863335 509.0562140574834 427.77739403572104L509.0562140574834 427.77739403572104L459.6210759106817 555.2510983705293Q459.18282113987675 555.2510983705293 458.7737833537921 555.2510983705293Q458.33552858298714 555.2510983705293 457.92649079690244 555.2510983705293L457.92649079690244 555.2510983705293Q457.5174530108178 555.2510983705293 457.0791982400129 555.2510983705293Q456.6701604539282 555.2510983705293 456.2319056831232 555.2510983705293L456.2319056831232 555.2510983705293L404.92688051422033 422.92737457214594Q401.7714461644245 414.95113774349534 397.768719257739 412.32160911866544Q393.7659923510535 409.6920804938356 390.40603910821534 409.4583446160729L390.40603910821534 409.4583446160729L390.40603910821534 405.2510988163451Q394.6132849079432 405.4848346941078 400.8072856686535 405.68935358715015Q407.0305034140842 405.89387248019244 412.903117342871 405.89387248019244L412.903117342871 405.89387248019244Q421.1130900492842 405.89387248019244 428.2712513057656 405.68935358715015Q435.4294125622469 405.4848346941078 439.841177255017 405.2510988163451L439.841177255017 405.2510988163451L439.841177255017 409.4583446160729Q429.11854386265514 409.8965993868779 426.2552793600626 413.1396846908347Q423.4212318421905 416.41198697951194 427.4239587488759 427.1346203718737L427.4239587488759 427.1346203718737L466.5455012894004 530.8549161290522L463.18554804656225 534.4193882649326L499.79442990113813 439.3473199849725Q504.20619459390826 427.9819129287634 504.001675700866 421.55417629029034Q503.7971568078236 415.1556566365377 499.15165623729087 412.40926007282644Q494.53537265147844 409.6920804938356 485.68262628121784 409.4583446160729L485.68262628121784 409.4583446160729L485.68262628121784 405.2510988163451Q491.7889760877672 405.4848346941078 498.0998447873589 405.68935358715015Q504.4107134869506 405.89387248019244 509.87428962965265 405.89387248019244L509.87428962965265 405.89387248019244Q515.3670827570752 405.89387248019244 518.9315548929555 405.68935358715015Q522.4960270288361 405.4848346941078 525.6514613786319 405.2510988163451Z " fill="white" transform="matrix(0.4290192375733701,0,0,0.4290192375733701,0,93.96302610074028)"/><path d="M809.216446613356 414.2135016151405L809.216446613356 414.2135016151405L809.216446613356 417.361271818498Q806.2435525324073 417.9951977622297 802.8553276607378 420.9899513584795Q799.4671027890682 423.98470495472935 796.8002419223347 431.0671879122837L796.8002419223347 431.0671879122837L759.8139420328843 526.4402531709554Q759.4860493033678 526.4402531709554 759.1800160891526 526.4402531709554Q758.8521233596362 526.4402531709554 758.5460901454209 526.4402531709554L758.5460901454209 526.4402531709554Q758.2400569312055 526.4402531709554 757.912164201689 526.4402531709554Q757.6061309874739 526.4402531709554 757.2782382579575 526.4402531709554L757.2782382579575 526.4402531709554L718.8929293892369 427.4385083723021Q716.5321017367188 421.47086069510357 713.5373481404689 419.5035043180051Q710.5425945442191 417.5361479409067 708.0287502845933 417.361271818498L708.0287502845933 417.361271818498L708.0287502845933 414.2135016151405Q711.1765204879508 414.3883777375492 715.8107377317828 414.5413943446569Q720.4668144909157 414.69441095176455 724.8605770664354 414.69441095176455L724.8605770664354 414.69441095176455Q731.0031008660428 414.69441095176455 736.3586821148108 414.5413943446569Q741.7142633635787 414.3883777375492 745.0150501740438 414.2135016151405L745.0150501740438 414.2135016151405L745.0150501740438 417.361271818498Q736.9926080585425 417.6891645480144 734.8503755590353 420.11557074643576Q732.7300025748292 422.56383646015826 735.7247561710791 430.58627857565966L735.7247561710791 430.58627857565966L764.9946471592435 508.1875578945422L762.4808028996177 510.8544187612756L789.8707755718881 439.7235559715168Q793.1715623823533 431.22020451939136 793.0185457752456 426.4111111531508Q792.8655291681379 421.62387730221127 789.389866235264 419.5690828639084Q785.9360628176912 417.5361479409067 779.3126296814598 417.361271818498L779.3126296814598 417.361271818498L779.3126296814598 414.2135016151405Q783.8812683793884 414.3883777375492 788.6029236844246 414.5413943446569Q793.3245789894609 414.69441095176455 797.4123083507653 414.69441095176455L797.4123083507653 414.69441095176455Q801.521897227371 414.69441095176455 804.1887580941044 414.5413943446569Q806.8556189608379 414.3883777375492 809.216446613356 414.2135016151405ZM841.4810911977703 442.39041683825025L841.4810911977703 442.39041683825025Q855.3400238986636 442.39041683825025 863.1220113458529 450.8063302291713Q870.9258583083434 459.24410313539346 870.9258583083434 477.0158890751826L870.9258583083434 477.0158890751826L815.3589704129633 477.0158890751826L815.2059538058556 474.0211354789328L855.8209332352877 474.0211354789328Q856.126966449503 466.3265860929478 854.5530813478242 459.7905910179208Q852.9791962461455 453.2545959428938 849.590971374476 449.3198831886969Q846.2027465028065 445.3851704345001 840.8690247693396 445.3851704345001L840.8690247693396 445.3851704345001Q833.6116656893765 445.3851704345001 828.0374892875976 452.6206699991621Q822.4414533705176 459.8561695638241 821.348477605463 475.5950205806115L821.348477605463 475.5950205806115L821.8075274267859 476.22894652434326Q821.5014942125706 478.5897741768614 821.348477605463 481.43151116600353Q821.1954609983553 484.2513886398446 821.1954609983553 487.0931256289868L821.1954609983553 487.0931256289868Q821.1954609983553 497.8042881265227 824.6492644159281 505.4988375125077Q828.103067833501 513.2152464137937 833.6991037505809 517.237397229195Q839.2951396676609 521.2376885292952 845.2627873448595 521.2376885292952L845.2627873448595 521.2376885292952Q852.3452703024138 521.2376885292952 858.3347774949135 517.7838851117224Q864.3024251721121 514.3300816941495 868.4120140487177 505.4988375125077L868.4120140487177 505.4988375125077L871.5597842520751 506.76668939997114Q869.8110230279876 511.9692540416314 865.8763102737909 516.8439259537753Q861.941597519594 521.7185978659193 855.9739498423954 524.7789300080723Q849.9844426498956 527.8611216655265 842.1150171415019 527.8611216655265L842.1150171415019 527.8611216655265Q830.7917882155355 527.8611216655265 822.6819080388296 522.6585570238663Q814.572027862124 517.477851897507 810.2438438325074 508.2531364404455Q805.9156598028909 499.050280498685 805.9156598028909 487.0931256289868L805.9156598028909 487.0931256289868Q805.9156598028909 473.2341929280934 810.3312818937118 463.24439443549363Q814.7250444692316 453.2545959428938 822.7693461000341 447.8334361482226Q830.7917882155355 442.39041683825025 841.4810911977703 442.39041683825025ZM911.8468709519908 555.2510943377969L911.8468709519908 555.2510943377969Q903.4965361069729 555.2510943377969 896.1080199352033 553.5023331137094Q888.6976442481326 551.775431404923 884.2164436114084 548.0811733190382Q879.7352429746842 544.3869152331533 879.7352429746842 538.7253007701701L879.7352429746842 538.7253007701701Q879.7352429746842 533.2167029142945 884.1508650655051 529.2819901600976Q888.5446276410249 525.3472774059007 896.1080199352033 523.292482967598L896.1080199352033 523.292482967598L897.0479790931504 525.8063272272237Q893.5941756755775 526.9211625075795 891.5393812372747 530.2219493180446Q889.4845867989719 533.5227361285098 889.4845867989719 537.6104654898143L889.4845867989719 537.6104654898143Q889.4845867989719 544.8459650544763 896.1735984811066 548.7150992627699Q902.8626101632412 552.5623739557624 913.5737726607772 552.5623739557624L913.5737726607772 552.5623739557624Q920.6562556183316 552.5623739557624 927.4327053616706 550.7480341857715Q934.1872955897085 548.9555539310819 938.6029176805295 544.6929484473686Q942.9966802560492 540.4522024789565 942.9966802560492 533.5227361285098L942.9966802560492 533.5227361285098Q942.9966802560492 528.3201714868494 939.3024221701645 524.9538061304811Q935.6081640842796 521.5655812588116 924.743984979636 521.5655812588116L924.743984979636 521.5655812588116L913.0928633241531 521.5655812588116Q908.0651748049016 521.5655812588116 903.3435194998654 520.7786387079722Q898.6218641948291 519.9916961571328 895.6271105985793 517.477851897507Q892.6323570023294 514.9421481225802 892.6323570023294 509.761442996221L892.6323570023294 509.761442996221Q892.6323570023294 504.405861747453 897.0479790931504 499.4437517741047Q901.4636011839713 494.48164180075645 913.2677394465619 489.3009366743973L913.2677394465619 489.3009366743973L915.1476577624559 490.72180516896833Q909.792076513688 493.5416826428094 905.8573637594911 496.4489981778549Q901.9226510052943 499.3781732282015 901.9226510052943 503.3128859823983L901.9226510052943 503.3128859823983Q901.9226510052943 508.3405745016498 909.4860432994727 508.3405745016498L909.4860432994727 508.3405745016498L929.1596070704569 508.3405745016498Q938.9089508947447 508.3405745016498 946.3849051277188 512.6687585312663Q953.8608593606929 516.996942560883 953.8608593606929 526.9211625075795L953.8608593606929 526.9211625075795Q953.8608593606929 534.3096786793492 949.1392040556566 540.7582356931717Q944.4175487506203 547.2067927069944 935.0616762017522 551.2289435223956Q925.6839441375831 555.2510943377969 911.8468709519908 555.2510943377969ZM912.6338135028301 492.1208141482383L912.6338135028301 492.1208141482383Q900.9826918473472 492.1208141482383 893.0258282777492 486.15316647103975Q885.0908242234522 480.1636592785401 885.0908242234522 467.26654525089486L885.0908242234522 467.26654525089486Q885.0908242234522 454.19455510084083 893.0258282777492 448.2924859695455Q900.9826918473472 442.39041683825025 912.6338135028301 442.39041683825025L912.6338135028301 442.39041683825025Q924.284935158313 442.39041683825025 932.21993921261 448.2924859695455Q940.1768027822081 454.19455510084083 940.1768027822081 467.26654525089486L940.1768027822081 467.26654525089486Q940.1768027822081 480.1636592785401 932.21993921261 486.15316647103975Q924.284935158313 492.1208141482383 912.6338135028301 492.1208141482383ZM912.6338135028301 489.3009366743973L912.6338135028301 489.3009366743973Q918.6014611800288 489.3009366743973 921.9896860516983 484.579281369361Q925.3779109233677 479.8576260643248 925.3779109233677 467.26654525089486L925.3779109233677 467.26654525089486Q925.3779109233677 454.6754644374649 921.9896860516983 449.95380913242866Q918.6014611800288 445.23215382739244 912.6338135028301 445.23215382739244L912.6338135028301 445.23215382739244Q906.7973229174381 445.23215382739244 903.3435194998654 449.95380913242866Q899.8897160822926 454.6754644374649 899.8897160822926 467.26654525089486L899.8897160822926 467.26654525089486Q899.8897160822926 479.8576260643248 903.3435194998654 484.579281369361Q906.7973229174381 489.3009366743973 912.6338135028301 489.3009366743973ZM935.3021308700643 455.4624069883042L935.3021308700643 455.4624069883042L932.4603938809222 454.3475717079485Q934.6682049263326 449.0138499744816 940.0237861751006 444.90426109787603Q945.3575079085674 440.8165317365715 951.1939984939594 440.8165317365715L951.1939984939594 440.8165317365715Q955.281727855264 440.8165317365715 957.7955721148898 443.11178084318635Q960.3094163745155 445.3851704345001 960.3094163745155 449.95380913242866L960.3094163745155 449.95380913242866Q960.3094163745155 454.8284810445725 957.7299935689864 456.79583742167097Q955.1287112481563 458.7631937987694 952.4399908661218 458.7631937987694L952.4399908661218 458.7631937987694Q950.0791632136037 458.7631937987694 948.0462282906019 457.10187063588626Q945.9914338522991 455.4624069883042 945.6854006380838 451.8337274483227Q945.3575079085674 448.2269074236422 947.8932116834943 442.5434334453579L947.8932116834943 442.5434334453579L949.926146606496 443.02434278198194Q943.3245729855656 445.5381870416077 940.4828359964234 448.2924859695455Q937.6629585225825 451.04678489748335 935.3021308700643 455.4624069883042ZM1002.6512975127339 442.39041683825025L1002.6512975127339 442.39041683825025Q1016.5102302136273 442.39041683825025 1024.2922176608167 450.8063302291713Q1032.096064623307 459.24410313539346 1032.096064623307 477.0158890751826L1032.096064623307 477.0158890751826L976.5291767279269 477.0158890751826L976.3761601208192 474.0211354789328L1016.9692800349502 474.0211354789328Q1017.2971727644666 466.3265860929478 1015.723287662788 459.7905910179208Q1014.1494025611092 453.2545959428938 1010.7611776894397 449.3198831886969Q1007.3729528177702 445.3851704345001 1002.0173715690022 445.3851704345001L1002.0173715690022 445.3851704345001Q994.7818720043402 445.3851704345001 989.2076956025613 452.6206699991621Q983.6116596854813 459.8561695638241 982.5186839204266 475.5950205806115L982.5186839204266 475.5950205806115L982.9777337417496 476.22894652434326Q982.6717005275343 478.5897741768614 982.5186839204266 481.43151116600353Q982.3438077980179 484.2513886398446 982.3438077980179 487.0931256289868L982.3438077980179 487.0931256289868Q982.3438077980179 497.8042881265227 985.8194707308918 505.4988375125077Q989.2732741484646 513.2152464137937 994.8693100655445 517.237397229195Q1000.4434864673234 521.2376885292952 1006.4329936598232 521.2376885292952L1006.4329936598232 521.2376885292952Q1013.5154766173774 521.2376885292952 1019.5049838098772 517.7838851117224Q1025.472631487076 514.3300816941495 1029.5603608483802 505.4988375125077L1029.5603608483802 505.4988375125077L1032.7081310517378 506.76668939997114Q1030.9812293429513 511.9692540416314 1027.0465165887545 516.8439259537753Q1023.1118038345576 521.7185978659193 1017.1441561573589 524.7789300080723Q1011.1546489648593 527.8611216655265 1003.2852234564656 527.8611216655265L1003.2852234564656 527.8611216655265Q991.961994530499 527.8611216655265 983.8521143537934 522.6585570238663Q975.7422341770877 517.477851897507 971.4140501474711 508.2531364404455Q967.0858661178545 499.050280498685 967.0858661178545 487.0931256289868L967.0858661178545 487.0931256289868Q967.0858661178545 473.2341929280934 971.5014882086754 463.24439443549363Q975.8952507841952 453.2545959428938 983.9176928996966 447.8334361482226Q991.961994530499 442.39041683825025 1002.6512975127339 442.39041683825025ZM1069.388397726973 418.4761070988538L1069.388397726973 418.4761070988538L1069.388397726973 444.7512444907684L1092.6906410379388 444.7512444907684L1092.6906410379388 447.89901469412587L1069.388397726973 447.89901469412587L1069.388397726973 508.82148383827393Q1069.388397726973 516.2100000100436 1072.0552585937062 519.2047536062935Q1074.743978975741 522.1995072025433 1079.465634280777 522.1995072025433L1079.465634280777 522.1995072025433Q1084.1872895858132 522.1995072025433 1087.6410930033862 518.3303729942497Q1091.1167559362602 514.4830983012572 1093.630600195886 505.34582090540005L1093.630600195886 505.34582090540005L1096.7783703992432 506.1327634562394Q1095.2044852975646 515.2700408520966 1090.5484085384314 521.5655812588116Q1085.9141912945997 527.8611216655265 1076.3178640774195 527.8611216655265L1076.3178640774195 527.8611216655265Q1070.9622828286515 527.8611216655265 1067.508479411079 526.5276912321598Q1064.032816478205 525.172401283492 1061.3659556114717 522.6585570238663L1061.3659556114717 522.6585570238663Q1057.8902926785977 519.0517369991858 1056.556862245231 514.0021889646331Q1055.2234318118644 508.9745004453816 1055.2234318118644 500.62416560036377L1055.2234318118644 500.62416560036377L1055.2234318118644 447.89901469412587L1040.1185067388087 447.89901469412587L1040.1185067388087 444.7512444907684L1055.2234318118644 444.7512444907684L1055.2234318118644 420.6839181442642Q1059.1581445660609 420.50904202185546 1062.7868241060428 420.0499922005325Q1066.3936441307233 419.5690828639084 1069.388397726973 418.4761070988538ZM1120.8456967457473 526.7462863851707L1120.8456967457473 526.7462863851707Q1110.6154435848357 526.7462863851707 1105.9812263410035 521.6311598047148Q1101.3470090971718 516.5160332242589 1101.3470090971718 508.03454128743454L1101.3470090971718 508.03454128743454Q1101.3470090971718 501.41110815120317 1104.5603578464325 497.08292412158664Q1107.7955661109945 492.75474009197006 1112.823254630246 490.0004411640323Q1117.8728026647987 487.24614223609444 1123.4469790665776 485.278785858996Q1129.0430149836575 483.31142948189756 1134.070703502909 481.43151116600353Q1139.1202515374616 479.5297333348084 1142.3336002867227 477.1689056822903Q1145.5688085512843 474.80807802977216 1145.5688085512843 471.2012580050917L1145.5688085512843 471.2012580050917L1145.5688085512843 461.43005466550284Q1145.5688085512843 454.8284810445725 1143.6014521741859 451.37467762699976Q1141.6340957970874 447.89901469412587 1138.3333089866223 446.71860086786677Q1135.0106626608563 445.5381870416077 1130.9229332995515 445.5381870416077L1130.9229332995515 445.5381870416077Q1126.9882205453546 445.5381870416077 1122.5070199086304 446.6530223219635Q1118.0258192719061 447.74599808701817 1115.3370988898719 451.199801504591L1115.3370988898719 451.199801504591Q1118.3318524861215 451.8337274483227 1120.539663531532 454.3475717079485Q1122.7474745769427 456.8832754828753 1122.7474745769427 460.8179882370722L1122.7474745769427 460.8179882370722Q1122.7474745769427 464.7527009912691 1120.233630317317 467.0260905825828Q1117.6979265423897 469.29948017389654 1113.7632137881933 469.29948017389654L1113.7632137881933 469.29948017389654Q1109.2164346055656 469.29948017389654 1107.0742021060582 466.3921646388511Q1104.9538291218523 463.48484910380563 1104.9538291218523 459.8561695638241L1104.9538291218523 459.8561695638241Q1104.9538291218523 455.76844020251957 1107.0086235601552 453.2545959428938Q1109.0415584831567 450.740751683268 1112.1893286865143 448.53294063785756L1112.1893286865143 448.53294063785756Q1115.8180082264957 446.0190963782318 1121.5670607506836 444.20475660824104Q1127.316113274871 442.39041683825025 1134.551612839533 442.39041683825025L1134.551612839533 442.39041683825025Q1141.0001698533556 442.39041683825025 1145.5688085512843 443.8987233940257Q1150.137447249213 445.3851704345001 1153.1103413301616 448.2269074236422L1153.1103413301616 448.2269074236422Q1157.2199302067675 451.98674405543034 1158.4659225789296 457.42976336540266Q1159.7337744663932 462.85092316007393 1159.7337744663932 470.41431545425235L1159.7337744663932 470.41431545425235L1159.7337744663932 514.1552055717408Q1159.7337744663932 517.93690171883 1160.826750231448 519.7512414888208Q1161.9415855118036 521.5655812588116 1164.6084463785369 521.5655812588116L1164.6084463785369 521.5655812588116Q1166.8162574239473 521.5655812588116 1168.4557210715293 520.6256221008646Q1170.1170442344128 519.6638034276164 1171.6909293360914 518.2647944483464L1171.6909293360914 518.2647944483464L1173.4178310448779 520.9316553150798Q1170.1170442344128 523.4454995747055 1167.1222906381627 525.1068227375887Q1164.127537041913 526.7462863851707 1159.0998485226614 526.7462863851707L1159.0998485226614 526.7462863851707Q1150.9243898000523 526.7462863851707 1148.235669418018 522.5055404167585Q1145.5688085512843 518.2647944483464 1145.5688085512843 512.7561965924708L1145.5688085512843 512.7561965924708Q1140.5192605167317 521.0846719221875 1134.1581415641135 523.9264089113296Q1127.7751630961943 526.7462863851707 1120.8456967457473 526.7462863851707ZM1127.7751630961943 520.4507459784558L1127.7751630961943 520.4507459784558Q1132.4968184012305 520.4507459784558 1137.0654570991587 517.6964470505179Q1141.6340957970874 514.9421481225802 1145.5688085512843 508.4935911087575L1145.5688085512843 508.4935911087575L1145.5688085512843 477.64981501891435Q1143.2079808987664 481.1036184364872 1138.2458709254179 483.15841287479Q1133.2837609520698 485.21320731309277 1128.0156177645063 487.63961351151414Q1122.7474745769427 490.08787922523663 1118.9657784298533 494.2630466477455Q1115.1840822827644 498.41635455495333 1115.1840822827644 506.1327634562394L1115.1840822827644 506.1327634562394Q1115.1840822827644 513.3682630209014 1118.8127618227459 516.9095044996786Q1122.4195818474263 520.4507459784558 1127.7751630961943 520.4507459784558ZM1227.0829411090626 442.39041683825025L1227.0829411090626 442.39041683825025Q1231.345546592776 442.39041683825025 1234.5588953420365 444.11731854703663Q1237.7941036065986 445.86607977112413 1239.6084433765895 448.6203786990619Q1241.42278314658 451.37467762699976 1241.42278314658 454.8284810445725L1241.42278314658 454.8284810445725Q1241.42278314658 458.7631937987694 1238.9745174328577 461.75794739501924Q1236.526251719135 464.7527009912691 1232.4385223578306 464.7527009912691L1232.4385223578306 464.7527009912691Q1229.1377355473655 464.7527009912691 1226.6238912877398 462.6104684917619Q1224.110047028114 460.4900955075558 1224.110047028114 456.5553827533589L1224.110047028114 456.5553827533589Q1224.110047028114 453.56062915710913 1225.749510675696 451.440256172903Q1227.410833838579 449.3198831886969 1229.443768761581 448.0520313012335L1229.443768761581 448.0520313012335Q1228.3507929965263 446.47814619955477 1226.1429819511159 446.47814619955477L1226.1429819511159 446.47814619955477Q1219.5414083301853 446.47814619955477 1214.6667364180416 451.440256172903Q1209.7702049905965 456.40236614625127 1207.0159060626588 463.331832496698Q1204.261607134721 470.26129884714464 1204.261607134721 476.0759299172356L1204.261607134721 476.0759299172356L1204.261607134721 509.4335502667045Q1204.261607134721 517.1499591679906 1208.7646672867463 519.7512414888208Q1213.2458679234705 522.3525238096508 1220.9622768247564 522.3525238096508L1220.9622768247564 522.3525238096508L1220.9622768247564 525.653310620116Q1217.333597284775 525.5002940130084 1210.7320236638448 525.2598393446964Q1204.1085905276132 525.0193846763843 1196.7200743558437 525.0193846763843L1196.7200743558437 525.0193846763843Q1191.3644931070758 525.0193846763843 1186.0963499195122 525.2598393446964Q1180.8282067319487 525.5002940130084 1178.139486349914 525.653310620116L1178.139486349914 525.653310620116L1178.139486349914 522.3525238096508Q1184.5880433637367 522.3525238096508 1187.3423422916744 519.9916961571328Q1190.0966412196121 517.6308685046147 1190.0966412196121 511.0074353683833L1190.0966412196121 511.0074353683833L1190.0966412196121 461.75794739501924Q1190.0966412196121 454.6754644374649 1187.5827969599864 451.28723956579535Q1185.0689527003606 447.89901469412587 1178.139486349914 447.89901469412587L1178.139486349914 447.89901469412587L1178.139486349914 444.5982278836607Q1183.1890343844666 445.07913722028474 1187.9106896895028 445.07913722028474L1187.9106896895028 445.07913722028474Q1192.4574688721304 445.07913722028474 1196.6326362946393 444.51078982245633Q1200.807803717148 443.964301939929 1204.261607134721 442.8713261748743L1204.261607134721 442.8713261748743L1204.261607134721 462.5448899458586Q1206.0103683588086 457.97625124793 1209.2237171080692 453.3420340040982Q1212.4589253726308 448.6859572449652 1217.0275640705595 445.5381870416077Q1221.5743432531872 442.39041683825025 1227.0829411090626 442.39041683825025ZM1266.124035436816 405.25110034169205L1266.124035436816 405.25110034169205Q1270.2117647981204 405.25110034169205 1273.2065183943705 408.24585393794194Q1276.2012719906202 411.2406075341917 1276.2012719906202 415.32833689549625L1276.2012719906202 415.32833689549625Q1276.2012719906202 419.4160662568008 1273.2065183943705 422.4108198530506Q1270.2117647981204 425.40557344930045 1266.124035436816 425.40557344930045L1266.124035436816 425.40557344930045Q1262.0363060755117 425.40557344930045 1259.0415524792616 422.4108198530506Q1256.046798883012 419.4160662568008 1256.046798883012 415.32833689549625L1256.046798883012 415.32833689549625Q1256.046798883012 411.2406075341917 1259.0415524792616 408.24585393794194Q1262.0363060755117 405.25110034169205 1266.124035436816 405.25110034169205ZM1274.2994941594252 442.8713261748743L1274.2994941594252 442.8713261748743L1274.2994941594252 511.0074353683833Q1274.2994941594252 517.6308685046147 1277.053793087363 519.9916961571328Q1279.8080920153006 522.3525238096508 1286.2785085444243 522.3525238096508L1286.2785085444243 522.3525238096508L1286.2785085444243 525.653310620116Q1283.58978816239 525.5002940130084 1278.1686283677186 525.2598393446964Q1272.7256090577462 525.0193846763843 1267.2170112018707 525.0193846763843L1267.2170112018707 525.0193846763843Q1261.8832894684037 525.0193846763843 1256.3746916125283 525.2598393446964Q1250.8660937566524 525.5002940130084 1248.1773733746181 525.653310620116L1248.1773733746181 525.653310620116L1248.1773733746181 522.3525238096508Q1254.6259303884408 522.3525238096508 1257.3802293163785 519.9916961571328Q1260.1345282443162 517.6308685046147 1260.1345282443162 511.0074353683833L1260.1345282443162 511.0074353683833L1260.1345282443162 461.75794739501924Q1260.1345282443162 454.6754644374649 1257.6206839846905 451.28723956579535Q1255.1068397250647 447.89901469412587 1248.1773733746181 447.89901469412587L1248.1773733746181 447.89901469412587L1248.1773733746181 444.5982278836607Q1253.2269214091707 445.07913722028474 1257.9485767142069 445.07913722028474L1257.9485767142069 445.07913722028474Q1262.4953558968346 445.07913722028474 1266.6705233193434 444.51078982245633Q1270.8456907418522 443.964301939929 1274.2994941594252 442.8713261748743ZM1315.395382925481 526.7462863851707L1315.395382925481 526.7462863851707Q1305.1651297645694 526.7462863851707 1300.5090530054363 521.6311598047148Q1295.8748357616046 516.5160332242589 1295.8748357616046 508.03454128743454L1295.8748357616046 508.03454128743454Q1295.8748357616046 501.41110815120317 1299.0881845108652 497.08292412158664Q1302.3233927754272 492.75474009197006 1307.3510812946788 490.0004411640323Q1312.4006293292314 487.24614223609444 1317.9748057310103 485.278785858996Q1323.5708416480902 483.31142948189756 1328.5985301673418 481.43151116600353Q1333.6480782018944 479.5297333348084 1336.861426951155 477.1689056822903Q1340.096635215717 474.80807802977216 1340.096635215717 471.2012580050917L1340.096635215717 471.2012580050917L1340.096635215717 461.43005466550284Q1340.096635215717 454.8284810445725 1338.1292788386186 451.37467762699976Q1336.1619224615201 447.89901469412587 1332.861135651055 446.71860086786677Q1329.5603488405895 445.5381870416077 1325.4507599639842 445.5381870416077L1325.4507599639842 445.5381870416077Q1321.5160472097873 445.5381870416077 1317.034846573063 446.6530223219635Q1312.5536459363389 447.74599808701817 1309.8867850696056 451.199801504591L1309.8867850696056 451.199801504591Q1312.8596791505543 451.8337274483227 1315.0674901959646 454.3475717079485Q1317.275301241375 456.8832754828753 1317.275301241375 460.8179882370722L1317.275301241375 460.8179882370722Q1317.275301241375 464.7527009912691 1314.7614569817497 467.0260905825828Q1312.247612722124 469.29948017389654 1308.312899967927 469.29948017389654L1308.312899967927 469.29948017389654Q1303.7442612699983 469.29948017389654 1301.623888285792 466.3921646388511Q1299.481655786285 463.48484910380563 1299.481655786285 459.8561695638241L1299.481655786285 459.8561695638241Q1299.481655786285 455.76844020251957 1301.536450224588 453.2545959428938Q1303.5912446628904 450.740751683268 1306.739014866248 448.53294063785756L1306.739014866248 448.53294063785756Q1310.3458348909285 446.0190963782318 1316.0948874151163 444.20475660824104Q1321.8439399393037 442.39041683825025 1329.0794395039657 442.39041683825025L1329.0794395039657 442.39041683825025Q1335.5279965177883 442.39041683825025 1340.096635215717 443.8987233940257Q1344.6652739136453 445.3851704345001 1347.6600275098954 448.2269074236422L1347.6600275098954 448.2269074236422Q1351.7477568711997 451.98674405543034 1352.9937492433623 457.42976336540266Q1354.2616011308255 462.85092316007393 1354.2616011308255 470.41431545425235L1354.2616011308255 470.41431545425235L1354.2616011308255 514.1552055717408Q1354.2616011308255 517.93690171883 1355.3545768958802 519.7512414888208Q1356.469412176236 521.5655812588116 1359.1362730429696 521.5655812588116L1359.1362730429696 521.5655812588116Q1361.34408408838 521.5655812588116 1363.005407251263 520.6256221008646Q1364.644870898845 519.6638034276164 1366.218756000524 518.2647944483464L1366.218756000524 518.2647944483464L1367.9456577093101 520.9316553150798Q1364.644870898845 523.4454995747055 1361.6501173025954 525.1068227375887Q1358.6772232216467 526.7462863851707 1353.6276751870942 526.7462863851707L1353.6276751870942 526.7462863851707Q1345.452216464485 526.7462863851707 1342.7634960824503 522.5055404167585Q1340.096635215717 518.2647944483464 1340.096635215717 512.7561965924708L1340.096635215717 512.7561965924708Q1335.0689466964654 521.0846719221875 1328.6859682285462 523.9264089113296Q1322.3029897606266 526.7462863851707 1315.395382925481 526.7462863851707ZM1322.3029897606266 520.4507459784558L1322.3029897606266 520.4507459784558Q1327.0246450656628 520.4507459784558 1331.5932837635914 517.6964470505179Q1336.1619224615201 514.9421481225802 1340.096635215717 508.4935911087575L1340.096635215717 508.4935911087575L1340.096635215717 477.64981501891435Q1337.7358075631987 481.1036184364872 1332.7736975898506 483.15841287479Q1327.8115876165025 485.21320731309277 1322.5434444289385 487.63961351151414Q1317.275301241375 490.08787922523663 1313.493605094286 494.2630466477455Q1309.7119089471967 498.41635455495333 1309.7119089471967 506.1327634562394L1309.7119089471967 506.1327634562394Q1309.7119089471967 513.3682630209014 1313.3405884871786 516.9095044996786Q1316.9692680271596 520.4507459784558 1322.3029897606266 520.4507459784558ZM1425.5673400429932 442.39041683825025L1425.5673400429932 442.39041683825025Q1431.5349877201916 442.39041683825025 1435.557138535593 443.964301939929Q1439.5574298356933 445.5381870416077 1442.2461502177275 448.3799240307499L1442.2461502177275 448.3799240307499Q1445.2409038139772 451.5276942341074 1446.4868961861398 456.2493495391436Q1447.7547480736034 460.97100484417984 1447.7547480736034 468.99344695968125L1447.7547480736034 468.99344695968125L1447.7547480736034 511.0074353683833Q1447.7547480736034 517.6308685046147 1450.5090470015411 519.9916961571328Q1453.2633459294789 522.3525238096508 1459.7119029433015 522.3525238096508L1459.7119029433015 522.3525238096508L1459.7119029433015 525.653310620116Q1457.0450420765683 525.5002940130084 1451.5364442206924 525.2598393446964Q1446.027846364817 525.0193846763843 1440.8252817231564 525.0193846763843L1440.8252817231564 525.0193846763843Q1435.6227170814964 525.0193846763843 1430.6824666234493 525.2598393446964Q1425.7203566501007 525.5002940130084 1423.206512390475 525.653310620116L1423.206512390475 525.653310620116L1423.206512390475 522.3525238096508Q1428.8681268534583 522.3525238096508 1431.2289545059766 519.9916961571328Q1433.5897821584945 517.6308685046147 1433.5897821584945 511.0074353683833L1433.5897821584945 511.0074353683833L1433.5897821584945 465.5396435421084Q1433.5897821584945 460.64311211466344 1432.8028396076552 456.5553827533589Q1432.015897056816 452.46765339205444 1429.2615981288782 449.95380913242866Q1426.50729920094 447.4399648728029 1420.845684737957 447.4399648728029L1420.845684737957 447.4399648728029Q1410.9214647912604 447.4399648728029 1404.8663790528576 455.7028616566163Q1398.8112933144544 463.9657584404297 1398.8112933144544 476.0759299172356L1398.8112933144544 476.0759299172356L1398.8112933144544 511.0074353683833Q1398.8112933144544 517.6308685046147 1401.1721209669727 519.9916961571328Q1403.532948619491 522.3525238096508 1409.194563082474 522.3525238096508L1409.194563082474 522.3525238096508L1409.194563082474 525.653310620116Q1406.6807188228481 525.5002940130084 1401.7186088495 525.2598393446964Q1396.756498876152 525.0193846763843 1391.5539342344914 525.0193846763843L1391.5539342344914 525.0193846763843Q1386.3732291081324 525.0193846763843 1380.8646312522565 525.2598393446964Q1375.356033396381 525.5002940130084 1372.6673130143467 525.653310620116L1372.6673130143467 525.653310620116L1372.6673130143467 522.3525238096508Q1379.1377295434704 522.3525238096508 1381.8920284714077 519.9916961571328Q1384.6463273993459 517.6308685046147 1384.6463273993459 511.0074353683833L1384.6463273993459 511.0074353683833L1384.6463273993459 461.75794739501924Q1384.6463273993459 454.6754644374649 1382.110623624419 451.28723956579535Q1379.5967793647933 447.89901469412587 1372.6673130143467 447.89901469412587L1372.6673130143467 447.89901469412587L1372.6673130143467 444.5982278836607Q1377.7168610488993 445.07913722028474 1382.4385163539355 445.07913722028474L1382.4385163539355 445.07913722028474Q1387.0071550518642 445.07913722028474 1391.1604629590715 444.51078982245633Q1395.3356303815808 443.964301939929 1398.8112933144544 442.8713261748743L1398.8112933144544 442.8713261748743L1398.8112933144544 461.43005466550284Q1402.8990226757592 450.740751683268 1410.2219603016256 446.5655842607591Q1417.5230384121905 442.39041683825025 1425.5673400429932 442.39041683825025ZM1507.8684151516109 417.361271818498L1507.8684151516109 414.2135016151405Q1511.169201962076 414.3883777375492 1516.524783210844 414.5413943446569Q1521.8803644596119 414.69441095176455 1527.082929101272 414.69441095176455L1527.082929101272 414.69441095176455Q1534.4714452730418 414.69441095176455 1541.2478950163809 414.5413943446569Q1548.002485244419 414.3883777375492 1550.8442222335611 414.3883777375492L1550.8442222335611 414.3883777375492Q1569.8838600608137 414.3883777375492 1579.327170670886 422.25780324594297Q1588.7704812809584 430.12722875433667 1588.7704812809584 441.7564908945185L1588.7704812809584 441.7564908945185Q1588.7704812809584 446.47814619955477 1586.8905629650644 451.8337274483227Q1584.9887851338694 457.18930869709067 1580.3545678900373 461.9109640021269Q1575.6984911309046 466.6326193071631 1567.676049015403 469.69295144931624Q1559.6536068999017 472.77514310677043 1547.3685593006871 472.77514310677043L1547.3685593006871 472.77514310677043L1532.2636342276314 472.77514310677043L1532.2636342276314 469.62737290341295L1545.794674199008 469.62737290341295Q1556.9867460331684 469.62737290341295 1562.8888151644637 466.08613142463577Q1568.790884295759 462.5448899458586 1570.911257279965 456.6428208145633Q1573.0316302641709 450.740751683268 1573.0316302641709 443.505252118606L1573.0316302641709 443.505252118606Q1573.0316302641709 431.0671879122837 1567.1295611328756 424.2251596230414Q1561.2274920015807 417.361271818498 1546.9095094793643 417.361271818498L1546.9095094793643 417.361271818498Q1539.6740099147023 417.361271818498 1537.4661988692915 420.0499922005325Q1535.258387823881 422.7168530672659 1535.258387823881 430.914171305176L1535.258387823881 430.914171305176L1535.258387823881 508.9745004453816Q1535.258387823881 514.6361149083648 1536.1983469818283 517.477851897507Q1537.1383061397755 520.2977293713482 1539.8926050677132 521.2376885292952Q1542.646903995651 522.1995072025433 1548.002485244419 522.5055404167585L1548.002485244419 522.5055404167585L1548.002485244419 525.653310620116Q1544.3956652197385 525.3472774059007 1538.952645909766 525.2598393446964Q1533.5314861150946 525.172401283492 1528.0228882592191 525.172401283492L1528.0228882592191 525.172401283492Q1521.8803644596119 525.172401283492 1516.524783210844 525.2598393446964Q1511.169201962076 525.3472774059007 1507.8684151516109 525.653310620116L1507.8684151516109 525.653310620116L1507.8684151516109 522.5055404167585Q1513.2239964003788 522.1995072025433 1515.9782953283166 521.2376885292952Q1518.7325942562543 520.2977293713482 1519.6725534142015 517.477851897507Q1520.6125125721483 514.6361149083648 1520.6125125721483 508.9745004453816L1520.6125125721483 508.9745004453816L1520.6125125721483 430.914171305176Q1520.6125125721483 425.07768071978404 1519.6725534142015 422.3233817918462Q1518.7325942562543 419.5690828639084 1515.9782953283166 418.541685644757Q1513.2239964003788 417.5361479409067 1507.8684151516109 417.361271818498L1507.8684151516109 417.361271818498ZM1533.2035933855782 472.77514310677043L1532.8975601713632 470.08642272473594Q1541.4009116234884 470.41431545425235 1546.2755835356324 470.807786729672Q1551.150255447776 471.2012580050917 1554.2324471052307 471.50729121930704Q1557.2927792473838 471.83518394882344 1560.134516236526 472.2942337701464L1560.134516236526 472.2942337701464Q1570.670802611653 474.0211354789328 1575.3050198554847 478.67721223806575Q1579.9610966146179 483.31142948189756 1582.1689076600283 493.08263282148647L1582.1689076600283 493.08263282148647L1586.1036204142251 509.1275170524892Q1587.6775055159037 516.0569834029359 1589.3169691634857 519.117315545089Q1590.9782923263688 522.1995072025433 1594.4320957439418 522.0246310801344L1594.4320957439418 522.0246310801344Q1597.1208161259765 521.8716144730269 1598.913296380666 520.2977293713482Q1600.7276361506565 518.7238442696694 1602.7824305889594 516.0569834029359L1602.7824305889594 516.0569834029359L1605.1432582414777 517.7838851117224Q1601.8424714310122 522.6585570238663 1598.3012299522352 525.2598393446964Q1594.7599884734582 527.8611216655265 1588.2895719443345 527.8611216655265L1588.2895719443345 527.8611216655265Q1582.4749408742437 527.8611216655265 1578.059318783423 524.3854587326526Q1573.6655562079027 520.9316553150798 1571.4577451624923 510.8544187612756L1571.4577451624923 510.8544187612756L1568.0039417449198 495.1155677444882Q1566.5830732503482 488.36097751645025 1564.7687334803577 483.39886754310197Q1562.9543937103672 478.4367575697537 1559.7410449611061 475.5950205806115Q1556.5058366965445 472.77514310677043 1550.2102962898293 472.77514310677043L1550.2102962898293 472.77514310677043L1533.2035933855782 472.77514310677043ZM1646.064270885125 442.39041683825025L1646.064270885125 442.39041683825025Q1659.9013440707172 442.39041683825025 1667.705191033208 450.8063302291713Q1675.4871784803972 459.24410313539346 1675.4871784803972 477.0158890751826L1675.4871784803972 477.0158890751826L1619.942150100318 477.0158890751826L1619.7672739779096 474.0211354789328L1660.3822534073415 474.0211354789328Q1660.6882866215565 466.3265860929478 1659.114401519878 459.7905910179208Q1657.5405164181993 453.2545959428938 1654.1741510618308 449.3198831886969Q1650.7859261901613 445.3851704345001 1645.4303449413933 445.3851704345001L1645.4303449413933 445.3851704345001Q1638.1948453767313 445.3851704345001 1632.5988094596514 452.6206699991621Q1627.0246330578725 459.8561695638241 1625.9097977775168 475.5950205806115L1625.9097977775168 475.5950205806115L1626.3907071141407 476.22894652434326Q1626.0628143846243 478.5897741768614 1625.9097977775168 481.43151116600353Q1625.7567811704089 484.2513886398446 1625.7567811704089 487.0931256289868L1625.7567811704089 487.0931256289868Q1625.7567811704089 497.8042881265227 1629.2105845879819 505.4988375125077Q1632.6862475208559 513.2152464137937 1638.2604239226348 517.237397229195Q1643.8564598397147 521.2376885292952 1649.8459670322145 521.2376885292952L1649.8459670322145 521.2376885292952Q1656.9284499897685 521.2376885292952 1662.8960976669673 517.7838851117224Q1668.8856048594666 514.3300816941495 1672.9733342207714 505.4988375125077L1672.9733342207714 505.4988375125077L1676.121104424129 506.76668939997114Q1674.3942027153425 511.9692540416314 1670.4594899611457 516.8439259537753Q1666.5247772069488 521.7185978659193 1660.535270014449 524.7789300080723Q1654.5676223372502 527.8611216655265 1646.698196828857 527.8611216655265L1646.698196828857 527.8611216655265Q1635.3531083875891 527.8611216655265 1627.2432282108834 522.6585570238663Q1619.1552075494787 517.477851897507 1614.827023519862 508.2531364404455Q1610.4988394902457 499.050280498685 1610.4988394902457 487.0931256289868L1610.4988394902457 487.0931256289868Q1610.4988394902457 473.2341929280934 1614.8926020657655 463.24439443549363Q1619.3082241565862 453.2545959428938 1627.330666272088 447.8334361482226Q1635.3531083875891 442.39041683825025 1646.064270885125 442.39041683825025ZM1726.7914608920642 442.39041683825025L1726.7914608920642 442.39041683825025Q1731.8410089266167 442.39041683825025 1736.562664231653 443.6582687257137Q1741.284319536689 444.90426109787603 1745.0660156837785 447.4399648728029L1745.0660156837785 447.4399648728029Q1748.6728357084585 449.80079252532096 1750.574613539654 452.8611246674741Q1752.4545318555479 455.9214568096272 1752.4545318555479 459.5501363496088L1752.4545318555479 459.5501363496088Q1752.4545318555479 463.790882318021 1750.09370420303 466.08613142463577Q1747.7328765505117 468.35952101594955 1744.1041970105302 468.35952101594955L1744.1041970105302 468.35952101594955Q1740.6503935929572 468.35952101594955 1738.049111272127 466.3265860929478Q1735.4478289512967 464.271791654645 1735.4478289512967 460.4900955075558L1735.4478289512967 460.4900955075558Q1735.4478289512967 456.8832754828753 1737.4151853283956 454.6754644374649Q1739.3825417054936 452.46765339205444 1742.0712620875283 451.8337274483227L1742.0712620875283 451.8337274483227Q1740.4973769858498 449.0138499744816 1736.4752261704484 447.11207214328647Q1732.4749348703485 445.23215382739244 1727.9062961724198 445.23215382739244L1727.9062961724198 445.23215382739244Q1723.971583418223 445.23215382739244 1720.036870664026 447.11207214328647Q1716.1021579098292 449.0138499744816 1712.8013710993641 453.3420340040982Q1709.478724773598 457.6702180337147 1707.4457898505962 465.1461722666887Q1705.3909954122933 472.6221264996628 1705.3909954122933 483.79233881852167L1705.3909954122933 483.79233881852167Q1705.3909954122933 497.629412004114 1708.5387656156508 505.8267302420241Q1711.6865358190084 514.0021889646331 1716.801662399464 517.5434304434103Q1721.91678897992 521.0846719221875 1728.0593127795273 521.0846719221875L1728.0593127795273 521.0846719221875Q1734.2018365791346 521.0846719221875 1740.4973769858498 517.477851897507Q1746.7929173925645 513.8491723575255 1750.8806467538693 504.88677108407705L1750.8806467538693 504.88677108407705L1753.875400350119 505.97974684913174Q1752.3015152484404 511.0074353683833 1748.6728357084585 516.1225619488392Q1745.0660156837785 521.2376885292952 1739.2295250983861 524.5603348550613Q1733.4148940282953 527.8611216655265 1724.9115425761702 527.8611216655265L1724.9115425761702 527.8611216655265Q1715.162198751882 527.8611216655265 1707.2927732434882 522.8115736309738Q1699.423347735095 517.7838851117224 1694.7672709759618 508.42801256285424Q1690.13305373213 499.050280498685 1690.13305373213 486.15316647103975L1690.13305373213 486.15316647103975Q1690.13305373213 473.2341929280934 1694.7672709759618 463.3974110426013Q1699.423347735095 453.56062915710913 1707.7518230648116 447.9864527553302Q1716.1021579098292 442.39041683825025 1726.7914608920642 442.39041683825025ZM1781.87743945082 405.25110034169205L1781.87743945082 405.25110034169205Q1785.9870283274254 405.25110034169205 1788.9599224083745 408.24585393794194Q1791.9546760046242 411.2406075341917 1791.9546760046242 415.32833689549625L1791.9546760046242 415.32833689549625Q1791.9546760046242 419.4160662568008 1788.9599224083745 422.4108198530506Q1785.9870283274254 425.40557344930045 1781.87743945082 425.40557344930045L1781.87743945082 425.40557344930045Q1777.7897100895152 425.40557344930045 1774.7949564932655 422.4108198530506Q1771.8220624123169 419.4160662568008 1771.8220624123169 415.32833689549625L1771.8220624123169 415.32833689549625Q1771.8220624123169 411.2406075341917 1774.7949564932655 408.24585393794194Q1777.7897100895152 405.25110034169205 1781.87743945082 405.25110034169205ZM1790.0747576887302 442.8713261748743L1790.0747576887302 442.8713261748743L1790.0747576887302 511.0074353683833Q1790.0747576887302 517.6308685046147 1792.829056616668 519.9916961571328Q1795.5833555446056 522.3525238096508 1802.0319125584283 522.3525238096508L1802.0319125584283 522.3525238096508L1802.0319125584283 525.653310620116Q1799.365051691695 525.5002940130084 1793.9220323817226 525.2598393446964Q1788.5008725870512 525.0193846763843 1782.9922747311757 525.0193846763843L1782.9922747311757 525.0193846763843Q1777.6366934824077 525.0193846763843 1772.1280956265323 525.2598393446964Q1766.6194977706564 525.5002940130084 1763.9526369039231 525.653310620116L1763.9526369039231 525.653310620116L1763.9526369039231 522.3525238096508Q1770.4011939177458 522.3525238096508 1773.1554928456835 519.9916961571328Q1775.9097917736212 517.6308685046147 1775.9097917736212 511.0074353683833L1775.9097917736212 511.0074353683833L1775.9097917736212 461.75794739501924Q1775.9097917736212 454.6754644374649 1773.3959475139955 451.28723956579535Q1770.8602437390687 447.89901469412587 1763.9526369039231 447.89901469412587L1763.9526369039231 447.89901469412587L1763.9526369039231 444.5982278836607Q1768.9803254231747 445.07913722028474 1773.7019807282109 445.07913722028474L1773.7019807282109 445.07913722028474Q1778.2706194261395 445.07913722028474 1782.4457868486484 444.51078982245633Q1786.5990947558562 443.964301939929 1790.0747576887302 442.8713261748743ZM1835.083499693682 442.8713261748743L1835.083499693682 442.8713261748743L1835.083499693682 539.5122433210095Q1835.083499693682 546.2668335490474 1839.1056505090833 548.5620826556622Q1843.1059418091836 550.835472246976 1850.1884247667376 550.835472246976L1850.1884247667376 550.835472246976L1850.1884247667376 554.1362590574411Q1846.734621349165 553.9832424503335 1840.5920975495574 553.7427877820214Q1834.44957374995 553.5023331137094 1827.5201073995036 553.5023331137094L1827.5201073995036 553.5023331137094Q1822.64543548736 553.5023331137094 1817.8582016364198 553.7427877820214Q1813.0491082701797 553.9832424503335 1810.5352640105539 554.1362590574411L1810.5352640105539 554.1362590574411L1810.5352640105539 550.835472246976Q1816.1968784735368 550.835472246976 1818.557706126055 548.7806778086731Q1820.9185337785734 546.7477428856714 1820.9185337785734 541.0861284226881L1820.9185337785734 541.0861284226881L1820.9185337785734 461.75794739501924Q1820.9185337785734 454.6754644374649 1818.4046895189472 451.28723956579535Q1815.8908452593218 447.89901469412587 1808.9613789088748 447.89901469412587L1808.9613789088748 447.89901469412587L1808.9613789088748 444.5982278836607Q1813.9890674281269 445.07913722028474 1818.710722733163 445.07913722028474L1818.710722733163 445.07913722028474Q1823.2793614310913 445.07913722028474 1827.4545288536006 444.51078982245633Q1831.6296962761094 443.964301939929 1835.083499693682 442.8713261748743ZM1860.2656613205418 442.39041683825025L1860.2656613205418 442.39041683825025Q1872.7037255268642 442.39041683825025 1881.1196389177853 452.38021533085004Q1889.5355523087064 462.39187333875094 1889.5355523087064 481.43151116600353L1889.5355523087064 481.43151116600353Q1889.5355523087064 492.75474009197006 1885.8412942228215 503.46590258950596Q1882.147036136937 514.1552055717408 1874.2776106285428 521.0190933762842Q1866.408185120149 527.8611216655265 1853.4892115772032 527.8611216655265L1853.4892115772032 527.8611216655265Q1846.1006954054333 527.8611216655265 1840.6795356107618 524.3854587326526Q1835.2365163007898 520.9316553150798 1833.3565979848959 516.0569834029359L1833.3565979848959 516.0569834029359L1834.9304830865744 513.8491723575255Q1837.1382941319848 518.2647944483464 1841.2916020391926 521.2376885292952Q1845.4667694617015 524.2324421255449 1851.7623098684162 524.2324421255449L1851.7623098684162 524.2324421255449Q1860.5716945347572 524.2324421255449 1865.4682259622023 518.7238442696694Q1870.342897874346 513.2152464137937 1872.3102542514448 504.0123904720333Q1874.2776106285428 494.80953453027286 1874.2776106285428 483.63932221141397L1874.2776106285428 483.63932221141397Q1874.2776106285428 471.04824139798404 1872.2228161902399 463.0039397671816Q1870.1898812672384 454.98149765168023 1866.080292390633 451.04678489748335Q1861.9925630293283 447.11207214328647 1856.0249153521295 447.11207214328647L1856.0249153521295 447.11207214328647Q1848.3085064508437 447.11207214328647 1842.012966044129 453.49505061120584Q1835.7174256374137 459.8561695638241 1833.9905239286272 472.77514310677043L1833.9905239286272 472.77514310677043L1832.0887460974322 470.56733206136Q1833.8156478062187 457.18930869709067 1841.619494768709 449.80079252532096Q1849.4014822158983 442.39041683825025 1860.2656613205418 442.39041683825025ZM1939.7468589553182 442.39041683825025L1939.7468589553182 442.39041683825025Q1953.6057916562117 442.39041683825025 1961.3877791034015 450.8063302291713Q1969.1697665505903 459.24410313539346 1969.1697665505903 477.0158890751826L1969.1697665505903 477.0158890751826L1913.6247381705116 477.0158890751826L1913.4717215634037 474.0211354789328L1954.064841477535 474.0211354789328Q1954.392734207051 466.3265860929478 1952.8188491053725 459.7905910179208Q1951.244964003694 453.2545959428938 1947.8567391320244 449.3198831886969Q1944.4685142603548 445.3851704345001 1939.1129330115868 445.3851704345001L1939.1129330115868 445.3851704345001Q1931.877433446925 445.3851704345001 1926.2813975298445 452.6206699991621Q1920.707221128066 459.8561695638241 1919.5923858477104 475.5950205806115L1919.5923858477104 475.5950205806115L1920.0732951843343 476.22894652434326Q1919.7672619701189 478.5897741768614 1919.5923858477104 481.43151116600353Q1919.4393692406024 484.2513886398446 1919.4393692406024 487.0931256289868L1919.4393692406024 487.0931256289868Q1919.4393692406024 497.8042881265227 1922.9150321734764 505.4988375125077Q1926.368835591049 513.2152464137937 1931.9648715081294 517.237397229195Q1937.5390479099078 521.2376885292952 1943.5285551024076 521.2376885292952L1943.5285551024076 521.2376885292952Q1950.611038059962 521.2376885292952 1956.5786857371609 517.7838851117224Q1962.5681929296602 514.3300816941495 1966.655922290965 505.4988375125077L1966.655922290965 505.4988375125077L1969.8036924943221 506.76668939997114Q1968.076790785536 511.9692540416314 1964.1420780313392 516.8439259537753Q1960.207365277142 521.7185978659193 1954.2178580846426 524.7789300080723Q1948.2502104074438 527.8611216655265 1940.3807848990505 527.8611216655265L1940.3807848990505 527.8611216655265Q1929.0356964577827 527.8611216655265 1920.947675796378 522.6585570238663Q1912.8377956196723 517.477851897507 1908.5096115900556 508.2531364404455Q1904.1814275604393 499.050280498685 1904.1814275604393 487.0931256289868L1904.1814275604393 487.0931256289868Q1904.1814275604393 473.2341929280934 1908.575190135959 463.24439443549363Q1912.9908122267798 453.2545959428938 1921.0132543422815 447.8334361482226Q1929.0356964577827 442.39041683825025 1939.7468589553182 442.39041683825025ZM2009.3038366433989 442.39041683825025L2009.3038366433989 442.39041683825025Q2015.5993770501136 442.39041683825025 2020.0149991409344 444.44521127655304Q2024.4306212317556 446.47814619955477 2026.463556154757 448.2269074236422L2026.463556154757 448.2269074236422Q2031.6661207964175 452.46765339205444 2032.7590965614722 442.5434334453579L2032.7590965614722 442.5434334453579L2036.3877761014537 442.5434334453579Q2036.0598833719373 446.9590555361788 2035.9068667648294 453.0141412745818Q2035.753850157722 459.0692270129847 2035.753850157722 469.29948017389654L2035.753850157722 469.29948017389654L2032.1251706177404 469.29948017389654Q2031.1852114597932 463.48484910380563 2028.9118218684798 457.97625124793Q2026.6165727618645 452.46765339205444 2022.2228101863448 448.92641191327726Q2017.807188095524 445.3851704345001 2010.7247051379695 445.3851704345001L2010.7247051379695 445.3851704345001Q2005.216107282094 445.3851704345001 2001.5218491962091 448.4455025766532Q1997.8275911103242 451.5276942341074 1997.8275911103242 457.49534191130596L1997.8275911103242 457.49534191130596Q1997.8275911103242 462.2169972163422 2000.6474685841654 465.6052220880117Q2003.489205573308 468.99344695968125 2008.0578442712363 471.9007624947267Q2012.626482969165 474.80807802977216 2017.960204702632 478.28374096264605L2017.960204702632 478.28374096264605Q2026.944465491381 484.09837203273696 2033.2400058980961 490.08787922523663Q2039.5355463048113 496.0555269024352 2039.5355463048113 505.8267302420241L2039.5355463048113 505.8267302420241Q2039.5355463048113 513.0622298066861 2035.753850157722 517.93690171883Q2031.9721540106325 522.8115736309738 2025.9170682722297 525.3472774059007Q2019.861982533827 527.8611216655265 2012.626482969165 527.8611216655265L2012.626482969165 527.8611216655265Q2009.150820036291 527.8611216655265 2006.0904878941378 527.3146337829992Q2003.0082962366837 526.7462863851707 2000.1884187628425 525.653310620116L2000.1884187628425 525.653310620116Q1998.614533661164 524.8663680692766 1996.953210498281 523.7733923042219Q1995.3137468506989 522.6585570238663 1993.7398617490198 521.4125646517039L1993.7398617490198 521.4125646517039Q1992.1659766473413 520.1447127642405 1990.8981247598776 521.4781431976071Q1989.630272872414 522.8115736309738 1989.0182064439837 526.7462863851707L1989.0182064439837 526.7462863851707L1985.3895269040022 526.7462863851707Q1985.6955601182171 521.7185978659193 1985.870436240626 514.4830983012572Q1986.023452847734 507.2475987365952 1986.023452847734 495.26858435159585L1986.023452847734 495.26858435159585L1989.630272872414 495.26858435159585Q1990.7451081527702 504.09982853323766 1992.7780430757716 510.70140215416797Q1994.8328375140745 517.3029757750983 1999.2484596048957 521.0190933762842Q2003.642222180415 524.713351462169 2011.5116476888093 524.713351462169L2011.5116476888093 524.713351462169Q2016.2333029938454 524.713351462169 2020.8893797529781 521.4125646517039Q2025.5235969968098 518.0899183259376 2025.5235969968098 509.761442996221L2025.5235969968098 509.761442996221Q2025.5235969968098 502.83197664577426 2020.4959084775587 498.41635455495333Q2015.4463604430057 494.0225919794335 2007.7299515417199 489.1479200672896L2007.7299515417199 489.1479200672896Q2002.0683370787365 485.51924052730806 1997.1062271053884 481.8905609873265Q1992.1659766473413 478.28374096264605 1989.0837849898867 473.7151022647175Q1986.023452847734 469.1464635667889 1986.023452847734 462.6979065529663L1986.023452847734 462.6979065529663Q1986.023452847734 455.6154235954119 1989.2368015969946 451.1342229586877Q1992.4720098615562 446.6530223219635 1997.8275911103242 444.51078982245633Q2003.1831723590922 442.39041683825025 2009.3038366433989 442.39041683825025Z " fill="#698474" transform="matrix(0.4290192375733701,0,0,0.4290192375733701,0,93.96302610074028)"/></g></svg>